<?xml version="1.0" standalone="no"?>
<!DOCTYPE svg PUBLIC "-//W3C//DTD SVG 20010904//EN"
 "http://www.w3.org/TR/2001/REC-SVG-20010904/DTD/svg10.dtd">
<svg version="1.0" xmlns="http://www.w3.org/2000/svg"
 width="1024.000000pt" height="1024.000000pt" viewBox="0 0 1024.000000 1024.000000"
 preserveAspectRatio="xMidYMid meet">
<metadata>
Created by RevKeep
</metadata>
<g transform="translate(0.000000,1024.000000) scale(0.100000,-0.100000)"
fill="#000000" stroke="none">
<path d="M8645 9215 c-93 -46 -267 -131 -385 -188 -118 -57 -314 -153 -435
-212 -121 -59 -265 -129 -320 -155 -55 -26 -221 -107 -370 -180 -148 -73 -324
-158 -390 -190 -281 -135 -635 -310 -635 -313 0 -4 144 -302 301 -622 45 -93
83 -172 84 -175 6 -24 81 -170 87 -170 8 0 128 58 638 308 135 66 246 119 248
117 2 -1 -79 -211 -179 -466 -100 -255 -192 -491 -204 -524 -12 -33 -44 -112
-69 -175 -26 -63 -49 -122 -51 -130 -2 -8 -50 -130 -105 -270 -56 -140 -114
-289 -130 -330 -83 -219 -471 -1208 -480 -1222 -5 -10 -10 -22 -10 -28 0 -6
-9 -29 -19 -53 -11 -23 -42 -100 -69 -172 -28 -71 -116 -299 -197 -505 -81
-206 -183 -467 -227 -580 -44 -113 -84 -211 -88 -219 -5 -9 -15 10 -29 55 -13
38 -26 78 -31 89 -4 11 -27 81 -50 155 -23 74 -46 146 -50 160 -5 14 -16 48
-24 75 -8 28 -64 212 -126 410 -62 198 -120 387 -130 420 -10 33 -38 125 -63
205 -25 80 -52 168 -60 195 -9 28 -57 183 -107 345 -94 301 -138 445 -208 675
-22 72 -47 150 -55 175 -8 25 -25 79 -37 120 -13 41 -29 95 -37 120 -18 56
-261 840 -313 1010 -21 69 -107 346 -190 615 -84 270 -177 572 -208 673 l-56
182 -1199 -2 -1200 -3 -29 -95 c-16 -52 -31 -104 -33 -115 -3 -11 -18 -63 -34
-115 -28 -89 -64 -209 -66 -220 -1 -6 -49 -167 -72 -240 -9 -30 -17 -57 -18
-60 0 -3 -11 -39 -24 -80 -13 -41 -25 -82 -27 -90 -5 -23 -102 -347 -124 -415
-10 -33 -35 -114 -54 -180 -19 -66 -44 -151 -57 -190 -12 -38 -32 -106 -44
-150 -21 -73 -143 -480 -201 -670 -14 -44 -26 -87 -29 -96 -2 -9 -9 -34 -15
-55 -6 -22 -17 -59 -25 -84 -7 -25 -48 -160 -90 -300 -42 -140 -94 -313 -115
-385 -22 -71 -59 -197 -84 -280 -24 -82 -63 -213 -86 -290 -23 -77 -52 -175
-66 -218 -13 -43 -24 -81 -24 -85 0 -5 783 -8 916 -3 18 1 55 56 185 274 90
149 166 276 168 280 2 5 36 61 75 126 40 64 75 123 79 131 4 8 16 29 26 45 23
37 517 859 541 900 9 17 43 73 75 125 31 52 69 115 82 139 14 24 38 64 53 88
l28 44 7 -33 c4 -18 11 -39 16 -48 5 -8 15 -35 23 -60 8 -25 65 -191 126 -370
61 -179 124 -363 140 -410 16 -47 52 -152 80 -235 29 -82 87 -253 130 -380 43
-126 129 -376 190 -555 61 -179 120 -350 130 -380 10 -30 73 -215 140 -410 67
-195 155 -452 195 -570 40 -118 102 -300 138 -405 163 -474 267 -779 302 -880
20 -60 39 -117 42 -125 4 -8 7 -17 8 -20 12 -39 48 -147 115 -340 45 -129 90
-260 100 -290 l17 -55 1014 -3 c558 -1 1024 0 1037 3 28 7 10 -36 197 470 86
231 160 429 165 440 5 11 43 115 85 230 42 116 80 219 86 230 5 11 22 56 38
100 30 85 233 630 308 830 25 66 58 154 73 195 92 249 349 942 365 980 8 19
32 85 54 145 22 61 44 122 50 135 10 23 221 590 296 795 18 50 44 119 57 155
14 36 72 193 131 350 58 157 128 345 156 419 28 73 51 137 51 141 0 4 8 25 17
46 9 22 18 44 19 49 2 8 243 652 260 695 4 9 31 -36 72 -120 177 -364 297
-613 334 -692 23 -49 45 -88 49 -88 4 0 65 29 135 64 71 35 170 82 219 106 50
24 204 99 344 166 140 68 258 124 262 124 14 0 11 9 -40 114 -62 127 -237 487
-348 716 -134 276 -268 552 -348 715 -40 83 -111 229 -158 325 -46 96 -128
265 -182 375 -54 110 -128 264 -166 343 -38 78 -75 142 -81 141 -7 0 -89 -38
-183 -84z"/>
</g>
</svg>
